# xmcd
#
# Track frame offsets: 
#        150
#        16427
#        55735
#        73660
#
# Disc length: 1198 seconds
#
# Revision: 2
# Processed by: cddbd v1.5.2PL0 Copyright (c) Steve Scherf et al.
# Submitted via: ExactAudioCopy v1.0b3
#
DISCID=2f04ac04
DTITLE=LeAnn Rimes - Can't Fight The Moonlight (The Remixes)
DYEAR=2000
DGENRE=Pop
TTITLE0=Can't Fight The Moonlight (Latino Mix)
TTITLE1=Can't Fight The Moonlight (Thunderpuss Club Mix)
TTITLE2=Can't Fight The Moonlight (Almighty Radio Edit)
TTITLE3=Can't Fight The Moonlight (Sharp Radio Edit)
EXTD=
EXTT0=
EXTT1=
EXTT2=
EXTT3=
PLAYORDER=
